<svg xmlns="http://www.w3.org/2000/svg" viewBox="0 0 100 100" role="img" aria-label="US Chess">
  <rect width="100" height="100" rx="22" fill="#1E50C8"/>
  <!-- knight -->
  <g fill="#fff">
    <path d="M37 78h30c1.2 0 2-1 1.8-2.2-1-5.4-2-9-2-14 0-12-3.4-21-10-27-3-2.7-4.2-4.6-4.4-7.2l3.2 1.6c.7.4 1.6.1 2-.6l2.2-4.3c.4-.8 1.4-1 2.1-.5 4.6 3.2 12 10.7 13.6 24.2.2 1.7 1.9 2.8 3.5 2.2-.8-15.8-9-27.5-19-32.6-.9-.5-1.3-1.6-.9-2.5l1.6-3.6c.5-1.1-.3-2.4-1.5-2.4h-3c-9 0-16 5-21 13-2.4 3.8-4 7-7.3 9.6-1.6 1.3-2.4 2.7-2.4 4.6 0 2.2 1.8 3.6 3.8 3.6 1.7 0 2.7-.7 3.8-1.8l2-2c.8-.8 2.2-.4 2.4.7.3 1.7-.2 3.4-1.6 4.8-4 4-7.7 8-7.7 17.2 0 5-.8 8.7-1.6 14C29 77 29.8 78 31 78h6z"/>
  </g>
  <text x="50" y="92" text-anchor="middle" font-family="Arial, sans-serif" font-weight="700" font-size="11" fill="#FFD500">US CHESS</text>
</svg>
